<?xml version="1.0" encoding="UTF-8"?>
<!DOCTYPE svg PUBLIC "-//W3C//DTD SVG 1.1//EN" "http://www.w3.org/Graphics/SVG/1.1/DTD/svg11.dtd">
<!-- Creator: CorelDRAW 2019 (64-Bit) -->
<svg xmlns="http://www.w3.org/2000/svg" xml:space="preserve" width="281.849mm" height="64.4441mm" version="1.1" style="shape-rendering:geometricPrecision; text-rendering:geometricPrecision; image-rendering:optimizeQuality; fill-rule:evenodd; clip-rule:evenodd"
viewBox="0 0 28194.48 6446.61"
 xmlns:xlink="http://www.w3.org/1999/xlink"
 xmlns:xodm="http://www.corel.com/coreldraw/odm/2003">
 <defs>
  <style type="text/css">
   <![CDATA[
    .fil0 {fill:#FEFEFE}
    .fil2 {fill:#D9DADA}
    .fil1 {fill:#C5C6C6}
   ]]>
  </style>
 </defs>
 <g id="Layer_x0020_1">
  <metadata id="CorelCorpID_0Corel-Layer"/>
  <g id="_2908238094096">
   <path class="fil0" d="M4518.71 2253.91c-12.68,26.97 -125.96,102.23 -159.99,127.06 -58.36,42.58 -105.1,77.95 -162.52,119.5l-963.21 710.63c-10.06,9.38 -6.96,6.28 -12.9,14.38 20.72,21.73 59.55,46.07 82.81,62.7 290.98,208.18 602.31,450.41 895.37,660.09 51.89,37.11 294.76,210.09 320.51,242.34 31.34,11.45 124.5,82.5 149.87,108.12l-9.8 9.59c-1.3,1.19 -3.5,3.3 -4.95,4.59l-135.11 93.57c-40.02,51.73 -1239.89,905.05 -1297.99,965.49l36.96 34.85c169.53,131.47 1242.85,896.8 1261.79,937.05 57.87,17.38 101.15,76.78 156.15,102.28l1092.04 -801.09c60.02,-43.4 336.61,-237.16 362.87,-275.24 -132.8,-107.58 -575.64,-424.4 -721.75,-530.81l-727.01 -540.28 978.16 -725.85c50.46,-35.87 300.09,-229.21 332.54,-234.37 15.73,-27.21 40.25,-39.61 71.52,-62.24 22.25,-16.11 41.8,-29.88 65.88,-50.79 -36.78,-43.22 -107.36,-71.86 -138.91,-116.01 -66.45,-30.38 -880.71,-641.68 -983.36,-716.12 -113.95,-82.66 -218.97,-167.29 -332.01,-244.59 -50.61,29.65 -97.56,87.85 -156.98,105.15z"/>
   <path class="fil0" d="M14997.46 3339.13c-50.54,-9.78 -309.19,21.72 -381.93,27.91 -35.81,126.28 81.36,418.38 130.5,505.69 77.74,138.11 187.16,249.51 313.2,332.77 457.57,302.33 1502.1,358.44 1898.61,-280.26 193.94,-312.39 149.36,-745.32 -86.38,-976.87 -230.94,-226.84 -514.24,-301.08 -899.84,-391.61 -176.89,-41.52 -343.64,-77.68 -510.28,-135.97 -172.26,-60.25 -301.46,-131.65 -332.83,-321.4 -33.61,-203.27 95.36,-354.99 207.21,-423.21 248.02,-151.26 823.91,-150.26 1043.98,45.06 107.54,95.44 201.03,238.62 213.29,442.41l394.39 -28.68c-8,-403.59 -238.7,-662.92 -503.14,-791.36 -547.02,-265.7 -1613.31,-179.46 -1743.51,574.52 -75.36,436.3 173.63,694.99 447.96,830.05 475.03,233.86 1173.49,223.9 1413.93,523.77 107.16,133.65 105.53,351.25 7.31,496.42 -93.17,137.74 -230.58,207.41 -398.52,248.24 -326.04,79.27 -792.88,15.94 -1019.69,-216.47 -102.84,-105.38 -168.07,-262.16 -194.27,-461.01z"/>
   <path class="fil0" d="M1596.95 2254.26c-13.47,28.75 -269.66,206.14 -316.51,242.08 -108.35,83.12 -220.97,162.83 -330.1,242.97l-487.63 358.46c-39.93,29.85 -140.23,94.3 -163.51,127.71 32.5,33.93 117.18,89.92 160.69,121.45l486.9 359.24c56.75,41.7 619.39,445.14 651.99,485.81 51.58,18.07 105.51,80.09 156.34,103.67 379.56,-266.23 769.7,-569.72 1146.89,-842.29 33.06,-23.89 136.58,-110.96 169.19,-113.87l29.67 -33.55c15.73,-12.44 22.84,-16 36.58,-26.34 23.78,-17.88 48.14,-34.55 69.06,-54.12 -33.01,-45.54 -113.44,-75.95 -136.28,-115.92 -49.98,-19.49 -605.02,-436.23 -658.48,-476.91l-656.63 -481.01c-54.2,23.36 -105.14,87.85 -158.18,102.61z"/>
   <path class="fil0" d="M7440.73 2253.06c-16.83,32.46 -996.95,740.84 -1135.82,845.82l-163.82 126.61 1135.12 838.45c48.64,34.87 132.1,85.73 163.68,126.7 52.14,19.17 105.38,81.03 156.36,104.87l906.96 -663.73c62.03,-47.96 120.97,-87 183,-135.31l364.06 -270.98c-12.97,-19.29 -14.58,-19.08 -36.22,-34.75l-1231.98 -905.9c-48.38,-35.31 -135.79,-108.47 -185.82,-133.66 -47.04,24.15 -111.42,90.62 -155.52,101.87z"/>
   <path class="fil0" d="M4518.88 104.47c-25.91,36.16 -269.79,206.29 -325.53,246.92l-972.46 718.51c1.09,1.81 2.96,4.13 3.77,5.09l1138.81 843.58c37.1,26.27 140.03,91.49 156,123.24 51.11,14.77 108.79,77.08 156.22,104.6 159.04,-104.02 559.27,-413.33 730.55,-537.13l544.93 -401.24c43.91,-32.01 155.12,-104.79 180.1,-140.27 -56.24,-34.55 -118.53,-86.87 -177.52,-129.55 -60.72,-43.93 -120.7,-89.2 -183.63,-134.72l-911.74 -671.19c-62.92,-46.9 -123.16,-94.42 -182.68,-132.32 -51.75,25.45 -102.83,85.61 -156.81,104.47z"/>
   <path class="fil0" d="M12374.54 1567.22c287.6,-33.83 493.79,168.87 571.41,366.8 94.11,239.98 113.14,546.94 115.52,827.61 2.31,273.39 -6.74,614.9 -79.62,863.05 -189.84,646.47 -848.53,597.39 -1045.48,109.82 -91.49,-226.49 -113.2,-560.6 -115.92,-827.35 -5.5,-540.55 26.3,-1277.85 554.08,-1339.93zm-82.07 -308.91c-733.94,104.74 -896.37,928.73 -861.65,1728.04 16.81,386.85 73.43,766.9 256.84,1042.34 165.84,249.03 452.26,438.43 902.94,379.74 794.04,-103.41 885.73,-1077.64 861.17,-1724.02 -19.3,-508.02 -125.92,-1119.39 -597.65,-1349.75 -157.05,-76.7 -367.69,-104.02 -561.64,-76.35z"/>
   <path class="fil0" d="M18328.33 2379.32c236.36,-52.88 433.76,73.2 525.81,187.98 119.5,149.01 176.49,290.55 199.91,535.42 21.28,222.64 3.13,464.03 -78.34,647.71 -64.74,145.99 -208.93,297.72 -388.96,338.9 -115.18,26.35 -228.23,13.96 -327.56,-26.83 -263.07,-108.03 -385.1,-392.53 -407.71,-691.14 -28.93,-382.3 40.54,-894.41 476.85,-992.05zm694.19 1754.29l0.17 1093.98 381.06 -0.42 -0.24 -3109.38 -342.16 -1.82 -0.91 291.71c-28.47,-23.15 -61.71,-72.69 -89.22,-102.83 -27.71,-30.35 -63.62,-62.85 -100.29,-90.83 -260.93,-199.09 -618.75,-184.62 -895.52,-45.69 -318.29,159.78 -512.84,532.49 -520.07,1020.77 -7.87,531.86 176.25,858.06 471.1,1069.77 146.7,105.34 371.57,179.82 598.46,151.34 203.16,-25.5 319.26,-103.42 447.43,-226.48 20.87,-20.04 33.9,-38.37 50.18,-50.14z"/>
   <path class="fil0" d="M23834.81 3238.8c23.21,103.66 -6.57,372.08 -36.87,466.48 -133.69,416.43 -769.97,520 -1008.84,303.85 -162.85,-147.35 -186.57,-497.1 214.05,-589.89 292.28,-67.7 552.56,-80.31 831.66,-180.44zm-1491.5 -486.27c41.45,20.91 305.64,53.33 365.21,53 41.77,-72.76 58.05,-238.81 194,-332 113.99,-78.13 270.89,-95.62 434.04,-91.84 375.46,8.7 549.18,193.26 500.17,552.75 -160.52,92.24 -805.72,130.92 -1039.13,198.37 -299.76,86.61 -560.99,327.57 -519.96,715.74 9.48,89.67 34.82,168.16 73.06,235.02 20.07,35.07 39.79,64.89 62.52,92.09 237.78,284.6 752.39,289.05 1074.93,156.56 210.39,-86.41 321.04,-207.24 381.58,-239.7 11.14,51.49 15.08,95.34 28.71,144.39 12.86,46.24 34.63,89.22 44.78,128.5l397.73 0.24c-67.33,-224.48 -97.52,-136.19 -110.44,-512.25 -7.15,-208.53 -5.37,-419.23 -5.56,-627.91 -0.36,-399.71 51.64,-817.86 -234.81,-1008.24 -355.86,-236.53 -1149.72,-204.39 -1444.26,108.86 -82.59,87.83 -183.85,257.36 -202.56,426.44z"/>
   <path class="fil0" d="M26538.78 3023.76c2.73,-358.57 273.99,-639.52 627.93,-645.01 377.48,-5.87 609.3,274.86 624.81,645.41l-1252.75 -0.4zm1643.24 663.62l-394.84 -46.11c-53.2,166.03 -145.54,292.86 -255.97,366.98 -262.51,176.19 -682.29,107.73 -875.02,-190.53 -78.02,-120.73 -141.66,-305.26 -138.64,-477.59l1676.42 -2.26c5.43,-350.28 -31.45,-611.99 -199.17,-858.31 -124.38,-182.67 -341.31,-359.52 -653.15,-402.96 -678.45,-94.5 -1112.12,329.78 -1199.7,906.29 -46.75,307.69 -18.1,656.91 110.05,902.17 119.36,228.43 296.71,393.64 581.76,483.24 278.91,87.67 649.48,56.87 888.14,-69.29 206.37,-109.09 399.18,-325.23 460.12,-611.62z"/>
   <path class="fil0" d="M21469.23 4042.83l1.18 322.64 340.44 0.23 -0.11 -2249.72 -380.58 0.46c-14.51,411.33 4.86,835.12 -0.83,1245.47 -2.63,189.78 -30.9,383.3 -123.96,507.3 -186.93,249.06 -659.97,312.72 -849.6,43.97 -93.74,-132.86 -87.2,-348.6 -87.72,-542.17 -1.1,-410.06 15.23,-846.19 -0.84,-1252.65l-378.7 -2.51c-12.97,337.3 -0.43,697.52 -1,1036.86 -0.55,322.33 -32.88,676.56 102.04,935.46 177.01,339.63 848.93,485.68 1257.06,95.17 24.31,-23.26 37.47,-40.72 61.01,-66.34 23.31,-25.37 37.32,-52.01 61.61,-74.19z"/>
   <path class="fil0" d="M9625.28 2025.19l-1.01 366.3c155.67,-36.33 536.05,-261.6 677.72,-381.29 30.2,-25.51 53.23,-48.93 84.72,-67.58 2.21,289.69 -11.53,2370.32 7.46,2423.29l370.68 -0.24 3.82 -3117.33 -241.02 -1.78c-20.43,22.6 -59.01,94.45 -80.92,126.25 -32.17,46.71 -59.63,75.87 -91.62,117.45 -132.91,172.73 -527.35,464.55 -729.83,534.93z"/>
   <path class="fil1" d="M3070.26 3109.57c22.84,39.97 103.27,70.38 136.28,115.92 -20.93,19.57 -45.29,36.24 -69.06,54.12 -13.74,10.34 -20.86,13.89 -36.58,26.34l-29.67 33.55c167.35,112.03 475.69,352.04 649.08,477.33l487.02 358.89c45.48,34.21 125.56,83.49 161.72,123.01 -33.08,35.65 -1203.25,889.42 -1356.28,1002.61 -26.64,19.71 -70.44,48.8 -91.65,70.63l1454.36 1074.63 144.09 -102.73c-18.94,-40.25 -1092.26,-805.57 -1261.79,-937.05l-36.96 -34.85c58.1,-60.44 1257.97,-913.76 1297.99,-965.49l-139.63 -104.94 32.48 -30.48c34.26,-26.44 73.26,-46.97 107.14,-80.46 -25.75,-32.25 -268.62,-205.23 -320.51,-242.34 -293.06,-209.67 -604.39,-451.9 -895.37,-660.09 -23.26,-16.64 -62.09,-40.97 -82.81,-62.7 5.94,-8.1 2.84,-5 12.9,-14.38l963.21 -710.63c57.42,-41.55 104.16,-76.92 162.52,-119.5 34.03,-24.83 147.31,-100.09 159.99,-127.06 -50.51,-33.11 -93.15,-72.97 -143.26,-104.42 -59.32,34.13 -106.17,77.56 -164.97,119.79l-811.81 598.19c-56.35,41.44 -105.97,78.75 -162.45,119.56 -51.16,36.96 -122.49,82 -165.98,122.53z"/>
   <path class="fil0" d="M25150.85 2448.26l-2.57 -332.4 -340.33 0.07 -1.66 2249.9 380.4 -0.2c4.48,-334.17 -15.41,-1058.94 7.3,-1330.54 24.36,-291.3 124.33,-583.34 435.29,-575.83 126.96,3.07 169.07,41.87 263.65,77.38 23.23,-30.75 122.78,-297.29 130.79,-348.01 -102.5,-90.71 -373.38,-160.44 -537.1,-96.93 -169.33,65.68 -241.98,211.12 -335.77,356.57z"/>
   <path class="fil1" d="M4519.47 2041.82c-15.98,-31.75 -118.9,-96.97 -156,-123.24l-1138.81 -843.58c-0.81,-0.96 -2.68,-3.28 -3.77,-5.09l972.46 -718.51c55.74,-40.63 299.62,-210.76 325.53,-246.92 -34.74,-30.94 -108.51,-84.13 -143.43,-104.17l-1089.5 799.02c-64.29,49.94 -121.2,87.15 -184.09,134.34 -62.25,46.72 -125.33,86.13 -180.87,136.25 9.23,14.96 -6.03,-1.41 16.28,18.93 72.48,66.06 928.24,680.23 1068.33,787.39l369.86 269.85c50.33,-32.07 94.09,-72.32 144.02,-104.26z"/>
   <path class="fil1" d="M1598.8 4191.99c-32.6,-40.66 -595.24,-444.1 -651.99,-485.81l-486.9 -359.24c-43.51,-31.53 -128.19,-87.52 -160.69,-121.45 23.28,-33.41 123.57,-97.86 163.51,-127.71l487.63 -358.46c109.14,-80.15 221.76,-159.85 330.1,-242.97 46.85,-35.94 303.03,-213.33 316.51,-242.08 -42.26,-32.97 -96.4,-77.19 -142.06,-102.61 -34.55,14.28 -144.76,101.43 -181.47,128.46l-1273.42 945.38 726.33 537.33c63.79,45.64 120.12,88.29 178.35,131.05 63.53,46.65 121.88,87.7 183.17,135.19l367.05 266.4c44.73,-31.81 102.57,-68.81 143.9,-103.48z"/>
   <path class="fil1" d="M5991.06 3109.48c31.55,44.15 102.12,72.78 138.91,116.01 -24.08,20.91 -43.63,34.68 -65.88,50.79 -31.27,22.63 -55.8,35.03 -71.52,62.24l1136.07 836.47c51.4,36.61 114.28,89.73 167.38,120.52 21.53,-10.39 124.29,-85.14 143.88,-104.87 -31.58,-40.97 -115.04,-91.83 -163.68,-126.7l-1135.12 -838.45 163.82 -126.61c138.87,-104.98 1118.99,-813.36 1135.82,-845.82 -50.86,-29.71 -91.24,-78.06 -144.72,-101.2l-1139.22 835.25c-54.01,41.7 -117.55,79.84 -165.73,122.37z"/>
   <path class="fil2" d="M4518.78 4406.49l135.11 -93.57c1.45,-1.29 3.65,-3.4 4.95,-4.59l9.8 -9.59c-25.37,-25.62 -118.53,-96.66 -149.87,-108.12 -33.87,33.49 -72.87,54.02 -107.14,80.46l-32.48 30.48 139.63 104.94z"/>
  </g>
 </g>
</svg>
